<svg width="24" height="25" viewBox="0 0 24 25" fill="none" xmlns="http://www.w3.org/2000/svg">
<path d="M24 12.5C24 5.883 18.617 0.5 12 0.5C5.383 0.5 0 5.883 0 12.5C0 19.117 5.383 24.5 12 24.5C18.617 24.5 24 19.117 24 12.5ZM1 12.5C1 6.435 5.935 1.5 12 1.5C18.065 1.5 23 6.435 23 12.5C23 18.565 18.065 23.5 12 23.5C5.935 23.5 1 18.565 1 12.5ZM13.092 16.23C12.8025 16.5191 12.4101 16.6815 12.001 16.6815C11.5919 16.6815 11.1995 16.5191 10.91 16.23L6.033 11.354L6.74 10.647L11.617 15.523C11.7191 15.6244 11.8571 15.6813 12.001 15.6813C12.1449 15.6813 12.2829 15.6244 12.385 15.523L17.257 10.65L17.964 11.357L13.092 16.23Z" fill="black"/>
</svg>
